<svg xmlns:xlink="http://www.w3.org/1999/xlink" viewBox="0 0 106.98 20.08" xmlns="http://www.w3.org/2000/svg" width="133"  height="25" ><path d="m44.9 2.74a7.3 7.3 0 0 0 -7.31 7.26v7.37h2.27v-7.37a5 5 0 0 1 10.08 0v7.33h2.26v-7.33a7.3 7.3 0 0 0 -7.3-7.26z" fill="#FFFFFF"></path><path d="m17.75 8.91h-12.13a5 5 0 0 1 9-1.83h2.61a7.31 7.31 0 0 0 -13.92 1.83 8.47 8.47 0 0 0 -.08 1.09v.35c0 .27 0 .53.08.78h12.13a5 5 0 0 1 -9 1.83h-2.59a7.31 7.31 0 0 0 13.9-1.83 8.23 8.23 0 0 0 .08-1.13v-.31c-.02-.26-.04-.53-.08-.78z" fill="#FFFFFF"></path><path d="m27.71 2.74a7.32 7.32 0 0 0 -6.84 4.73 6.92 6.92 0 0 0 -.37 1.44 6.65 6.65 0 0 0 -.08.78v.35a6.9 6.9 0 0 0 .09 1.13 7.3 7.3 0 0 0 13.88 1.83h-2.61a5 5 0 0 1 -9-1.83h12.15a6.43 6.43 0 0 0 .08-.78c0-.12 0-.23 0-.35a7.08 7.08 0 0 0 -.09-1.13 7.3 7.3 0 0 0 -7.21-6.17zm.12 6.17h-5a4.62 4.62 0 0 1 .33-1 5 5 0 0 1 9.48 1z" fill="#FFFFFF"></path><path d="m69.3 8.91h-12.12a5 5 0 0 1 9-1.83h2.61a7.3 7.3 0 0 0 -13.92 1.83 7.08 7.08 0 0 0 -.09 1.09v.35a6.43 6.43 0 0 0 .08.78h12.14a5 5 0 0 1 -9 1.87h-2.6a7.3 7.3 0 0 0 13.9-1.83 6.9 6.9 0 0 0 .09-1.17c0-.12 0-.23 0-.35a6.65 6.65 0 0 0 -.09-.74z" fill="#FFFFFF"></path><path d="m103.75 9.69c0-.26 0-.53-.08-.78h-12.13a5 5 0 0 1 9-1.83h2.61a7.31 7.31 0 0 0 -13.9 1.83 8.47 8.47 0 0 0 -.1 1.09v.35c0 .27 0 .53.08.78h12.13a5 5 0 0 1 -9 1.83h-2.59a7.31 7.31 0 0 0 13.9-1.83 6.9 6.9 0 0 0 .09-1.13c0-.08-.01-.19-.01-.31z" fill="#FFFFFF"></path><path d="m79.27 2.74a7.3 7.3 0 0 0 -6.84 4.73 6.94 6.94 0 0 0 -.38 1.44 6.65 6.65 0 0 0 -.08.78v.35a6.9 6.9 0 0 0 .09 1.13 7.3 7.3 0 0 0 13.88 1.83h-2.6a5 5 0 0 1 -9-1.83h12.14a6.43 6.43 0 0 0 .08-.78c0-.12 0-.23 0-.35a7.08 7.08 0 0 0 -.09-1.13 7.29 7.29 0 0 0 -7.2-6.17zm.11 6.17h-5a5.28 5.28 0 0 1 .33-1 5 5 0 0 1 9.48 1z" fill="#FFFFFF"></path></svg>