<svg xmlns:xlink="http://www.w3.org/1999/xlink" xmlns="http://www.w3.org/2000/svg" viewBox="0 0 37.46 46.04" width="110"  height="136" ><g fill-opacity="0"><g fill-opacity="0"><path d="M3.37,23c0,.14,0,.28,0,.42s0,.38,0,.57A26.12,26.12,0,0,0,4,28.51c.07-.23.14-.44.2-.67.32-1.07.61-2.16.89-3.25l.24-.91c.16-.66.32-1.33.47-2L3.45,21C3.4,21.7,3.37,22.36,3.37,23Z" style="transform: scale(1); fill-opacity: 1;" fill="#811A42"></path><path d="M28.17,7.29A14,14,0,0,0,21.93,3.5h0l-.06,0c-.4-.1-.8-.19-1.2-.26l-.28,2.72.4.09.13,0,.2.06a12.84,12.84,0,0,1,5.2,3l.07.07A16.21,16.21,0,0,1,29,12.51l1.69-2A18.68,18.68,0,0,0,28.17,7.29Z" style="transform: scale(1); fill-opacity: 1;" fill="#009F84"></path><path d="M33.77,19c-.05-.37-.12-.74-.19-1.1a23.71,23.71,0,0,0-1.35-4.4,21,21,0,0,0-1.55-3l-1.69,2c.14.23.28.46.41.7s.37.72.55,1.09l.05.12a23.22,23.22,0,0,1,1.55,4.48l0,.1c.1.41.18.82.27,1.24.13.68.24,1.37.32,2.07l1.89-.4A24.59,24.59,0,0,0,33.77,19Z" style="transform: scale(1); fill-opacity: 1;" fill="#4AB9B2"></path><path d="M18.73,3.06a12.13,12.13,0,0,0-5.38,1.27l0,0a15.3,15.3,0,0,0-5,4l1.33,2.22a1.09,1.09,0,0,1,.13-.17,12.15,12.15,0,0,1,2.59-2.66c.38-.28.77-.53,1.15-.76L14,6.74l.12-.06a8.29,8.29,0,0,1,3.24-.9,6.08,6.08,0,0,1,.61,0,13.38,13.38,0,0,1,2.23.16l.2,0,.28-2.72A12.36,12.36,0,0,0,18.73,3.06Z" style="transform: scale(1); fill-opacity: 1;" fill="#3C5F7A"></path><path d="M8,8.7c-.29.36-.56.74-.83,1.13A21.38,21.38,0,0,0,4.67,15v0a1.27,1.27,0,0,0-.06.18q-.14.41-.24.81c-.19.68-.36,1.38-.49,2.09l-.21,1c0,.17,0,.34-.07.51-.06.47-.11.95-.15,1.43l2.31.65c.16-.71.31-1.43.45-2.14.07-.33.14-.65.2-1,.12-.62.27-1.23.43-1.83.07-.26.15-.52.23-.78l.06-.21a19.77,19.77,0,0,1,2-4.45c.13-.21.26-.41.4-.6l.08-.12L8.32,8.36C8.22,8.47,8.13,8.58,8,8.7Z" style="transform: scale(1); fill-opacity: 1;" fill="#50153F"></path><path d="M32.36,29.93c-.07,1-.17,2-.31,3A24.33,24.33,0,0,0,34,25.23c.06-.72.1-1.45.1-2.2,0-.37,0-.75,0-1.12l-1.89.4c.14,1.11.23,2.24.27,3.37v.18c0,1.21,0,2.42,0,3.61Z" style="transform: scale(1); fill-opacity: 1;" fill="#F9B30A"></path></g><g fill-opacity="0"><path d="M7.58,22.85c-.07.36-.15.72-.23,1.07l-.3,1.37c-.27,1.2-.55,2.39-.89,3.59-.08.28-.17.56-.25.84l-.33,1.11,0,.07c-.15.45-.29.91-.44,1.36l3.24-1.71c.1-.32.2-.65.29-1,.32-1.16.6-2.3.86-3.44l.42-1.92c.06-.27.11-.54.17-.81s.07-.32.11-.48l-2.49-.7C7.67,22.44,7.63,22.65,7.58,22.85Z" style="transform: scale(1); fill-opacity: 1;" fill="#811A42"></path><path d="M27.23,14.18a12.66,12.66,0,0,0-2.45-3.27l-.09-.09,0,0a9.78,9.78,0,0,0-4.26-2.3l-.26-.06L19.87,11A7.19,7.19,0,0,1,22.8,12.6l.16.13.06.06a10.67,10.67,0,0,1,1.84,2.45q.18.31.36.66c.06.12.12.24.17.36l.18.37,1.81-2.18Z" style="transform: scale(1); fill-opacity: 1;" fill="#009F84"></path><path d="M29.83,22.14c0-.19-.07-.38-.1-.56-.07-.37-.14-.73-.22-1.07s-.08-.38-.13-.57A24.23,24.23,0,0,0,27.8,15.3l-.11-.23-.31-.62-1.81,2.18A23.24,23.24,0,0,1,27,21.09c.07.35.15.71.21,1.09,0,.13.05.25.07.38s0,.35.08.52l0,.24,2.54-.54C29.9,22.56,29.87,22.35,29.83,22.14Z" style="transform: scale(1); fill-opacity: 1;" fill="#4AB9B2"></path><path d="M20.05,8.41a7.87,7.87,0,0,0-1.6-.14A7.66,7.66,0,0,0,17,8.44c-.23.05-.45.1-.67.17a9,9,0,0,0-1.44.61l-.2.11a10.43,10.43,0,0,0-1,.64,11.71,11.71,0,0,0-2.18,2.16c-.15.19-.29.38-.42.58l0,0-.08.12,1.49,2.5c.09-.16.17-.32.26-.47l.39-.6.22-.32a7.93,7.93,0,0,1,.55-.69,7.83,7.83,0,0,1,1.5-1.35l.28-.19.37-.21c.19-.1.39-.2.58-.28l.45-.16a5.09,5.09,0,0,1,1.53-.24,4.41,4.41,0,0,1,.52,0l.48.07.24.05.26-2.57Z" style="transform: scale(1); fill-opacity: 1;" fill="#3C5F7A"></path><path d="M9.21,16.4l-.12.35-.21.61c-.13.42-.26.86-.36,1.31-.07.29-.13.56-.2.84-.21.93-.41,1.84-.6,2.72l2.49.7c.23-1.1.49-2.29.78-3.48a.85.85,0,0,1,0-.17c.09-.41.21-.8.33-1.19,0-.13.08-.26.13-.39s.12-.36.19-.53a14.5,14.5,0,0,1,.82-1.82L11,12.85A16.4,16.4,0,0,0,9.21,16.4Z" style="transform: scale(1); fill-opacity: 1;" fill="#50153F"></path><path d="M30,30.53c.11-1.3.16-2.55.16-3.75,0-.15,0-.3,0-.45a30.58,30.58,0,0,0-.25-3.55l-2.54.54a29.31,29.31,0,0,1,.2,3.77c0,.25,0,.5,0,.75,0,1.23-.14,2.54-.29,3.91-.05.4-.1.81-.16,1.22L29.45,35C29.71,33.49,29.9,32,30,30.53Z" style="transform: scale(1); fill-opacity: 1;" fill="#F9B30A"></path><path d="M27.13,33c-.09.61-.19,1.24-.29,1.87,0,.14-.05.27-.08.41C26.43,37.09,26,39,25.46,41a15.8,15.8,0,0,0,3.41-3c.13-.61.26-1.23.37-1.83v0c.07-.37.13-.74.2-1.11Z" style="transform: scale(1); fill-opacity: 1;" fill="#E95640"></path><path d="M5.12,32.28A21.08,21.08,0,0,0,6.74,35.5c.43-1.17.83-2.37,1.21-3.59.09-.28.17-.57.26-.86l.12-.4,0-.1L5.12,32.26Z" style="transform: scale(1); fill-opacity: 1;" fill="#B22B6A"></path></g><g fill-opacity="0"><path d="M13.52,27.53c.09-.43.18-.86.26-1.29s.19-1,.3-1.53c0-.22.09-.43.14-.66l-2.49-.69c-.07.34-.15.69-.22,1.05s-.18.89-.26,1.35c-.06.3-.13.61-.19.92-.19.92-.4,1.85-.63,2.78l3-1.61C13.47,27.75,13.5,27.64,13.52,27.53Z" style="transform: scale(1); fill-opacity: 1;" fill="#811A42"></path><path d="M19.63,16.18l.14.08a3.54,3.54,0,0,1,.89.86c.06.09.12.17.18.27s.22.36.33.56a12,12,0,0,1,1,2.78l2-2.4A11.9,11.9,0,0,0,23.58,17c-.07-.15-.15-.3-.23-.44s-.19-.34-.29-.5a6.51,6.51,0,0,0-1.51-1.68l-.3-.22c-.15-.09-.3-.18-.46-.26a4.2,4.2,0,0,0-1.18-.39l-.26,2.58A1.8,1.8,0,0,1,19.63,16.18Z" style="transform: scale(1); fill-opacity: 1;" fill="#009F84"></path><path d="M22.58,23.21c.05.35.08.72.12,1.11l2.55-.55c0-.05,0-.1,0-.15-.05-.55-.11-1.08-.19-1.59a20.09,20.09,0,0,0-.89-3.7l-2,2.4A21.14,21.14,0,0,1,22.58,23.21Z" style="transform: scale(1); fill-opacity: 1;" fill="#4AB9B2"></path><path d="M15.55,19.35h0l0,0a2.77,2.77,0,0,1,.1-.26c0-.08.07-.16.1-.23s.11-.23.16-.34a6.16,6.16,0,0,1,.92-1.44,2.25,2.25,0,0,1,.42-.4h0a4,4,0,0,1,.72-.43,2.17,2.17,0,0,1,.89-.21,1.71,1.71,0,0,1,.43.06h0l.26-2.58a3.17,3.17,0,0,0-.75-.06,5.16,5.16,0,0,0-.67.05h0a5.47,5.47,0,0,0-1.7.62l-.18.1-.19.12-.35.24a5.26,5.26,0,0,0-1,.93c-.1.11-.19.23-.29.35s-.31.45-.46.7-.26.46-.38.71L15.3,20C15.38,19.8,15.47,19.57,15.55,19.35Z" style="transform: scale(1); fill-opacity: 1;" fill="#3C5F7A"></path><path d="M14.7,22c.18-.68.38-1.36.6-2l-1.65-2.77-.21.45c-.1.21-.19.43-.28.66,0,.08-.07.15-.1.24-.09.25-.19.52-.28.8a37.08,37.08,0,0,0-1,3.95l2.49.69C14.36,23.41,14.51,22.72,14.7,22Z" style="transform: scale(1); fill-opacity: 1;" fill="#50153F"></path><path d="M22.77,25.41c0,.19,0,.38,0,.57,0,.45,0,.9,0,1.39s0,.73,0,1.11l0,.61,2.4,2.13c.09-.87.16-1.7.2-2.47q0-.54,0-1v-.36c0-1.05,0-2-.1-3,0-.21,0-.41-.05-.62l-2.55.55C22.73,24.67,22.75,25,22.77,25.41Z" style="transform: scale(1); fill-opacity: 1;" fill="#F9B30A"></path><path d="M22.71,29.83c-.06.81-.16,1.68-.29,2.59l-.18,1.13c0,.16,0,.32-.08.48-.24,1.31-.54,2.69-.91,4.13l0,.08-.06.23c-.38,1.44-.82,2.93-1.35,4.48a12.39,12.39,0,0,0,2.91-.64c.07-.21.13-.41.19-.62a64.23,64.23,0,0,0,1.76-7.22c.05-.25.09-.49.13-.74s.11-.64.15-.95c.08-.53.15-1.05.2-1.55l-2.4-2.14C22.75,29.33,22.73,29.58,22.71,29.83Z" style="transform: scale(1); fill-opacity: 1;" fill="#E95640"></path><path d="M9.92,39.38c.51-1.28,1-2.57,1.42-3.87h0l.08-.24c.21-.66.43-1.32.63-2l0-.11c.18-.58.34-1.17.5-1.76.11-.39.22-.79.32-1.19.2-.79.38-1.58.55-2.38l-3,1.61-.27,1c-.06.24-.13.48-.2.72-.2.73-.41,1.46-.64,2.19S8.76,35.11,8.45,36c-.15.44-.32.88-.48,1.32A16.27,16.27,0,0,0,9.92,39.38Z" style="transform: scale(1); fill-opacity: 1;" fill="#B22B6A"></path></g><g fill-opacity="0"><path d="M15.83,24.91c0,.11-.05.23-.08.34l0,.15c-.11.46-.23.94-.34,1.43l3-1.6h0l-2.49-.69Z" style="transform: scale(1); fill-opacity: 1;" fill="#811A42"></path><path d="M20.65,22.54c-.29-2.17-.67-3.21-1.61-3.43l-.62,6.11Z" style="transform: scale(1); fill-opacity: 1;" fill="#009F84"></path><path d="M20.89,24.7v0q0-.32-.06-.6c-.05-.56-.11-1.07-.17-1.52l-2.23,2.68Z" style="transform: scale(1); fill-opacity: 1;" fill="#4AB9B2"></path><path d="M19,19.11l-.28,0a1.27,1.27,0,0,0-.63.1,1.75,1.75,0,0,0-.75.65,5.81,5.81,0,0,0-.67,1.62c-.06.19-.12.41-.18.63l1.88,3.15h0Z" style="transform: scale(1); fill-opacity: 1;" fill="#3C5F7A"></path><path d="M15.92,24.53l2.49.69h0l-1.88-3.15C16.34,22.77,16.14,23.6,15.92,24.53Z" style="transform: scale(1); fill-opacity: 1;" fill="#50153F"></path><path d="M21,27.5c0-.13,0-.25,0-.37v-.42c0-.73,0-1.4-.09-2l-2.47.52Z" style="transform: scale(1); fill-opacity: 1;" fill="#F9B30A"></path><path d="M19.89,36.12c0-.18.09-.37.13-.56s.05-.26.08-.39a2,2,0,0,1,0-.24c.13-.69.24-1.37.34-2,.07-.49.14-1,.19-1.42,0-.29.07-.58.1-.86,0-.54.1-1.07.13-1.58S21,28,21,27.5l-2.55-2.28h0v1.86c0,.48,0,1-.05,1.53,0,.06,0,.12,0,.18,0,.32,0,.66-.07,1l0,.34c0,.44-.09.88-.15,1.34l0,.25L18,32l-.09.57c-.17,1.17-.4,2.4-.69,3.68a49,49,0,0,1-1.88,6.3A12.46,12.46,0,0,0,18,43,52.67,52.67,0,0,0,19.89,36.12Z" style="transform: scale(1); fill-opacity: 1;" fill="#E95640"></path><path d="M15.25,27.35l0,.14c-.05.19-.1.39-.14.58-.16.66-.32,1.33-.49,2-.13.49-.25,1-.38,1.48a.29.29,0,0,0,0,.09l0,.07c-.29,1.1-.6,2.23-.95,3.39q-.22.77-.48,1.56c-.19.6-.4,1.22-.62,1.83l-.15.43q-.21.6-.45,1.2l-.16.42a13.74,13.74,0,0,0,2.25,1.31c.11-.27.22-.53.32-.8.52-1.35,1-2.68,1.39-4s.82-2.74,1.17-4.06c.12-.42.22-.83.32-1.24.17-.66.34-1.31.5-2,0-.18.09-.36.13-.54l.09-.37c.07-.28.13-.55.2-.82l.12-.5.56-2.37-3,1.6C15.34,27,15.29,27.17,15.25,27.35Z" style="transform: scale(1); fill-opacity: 1;" fill="#B22B6A"></path></g></g></svg>