<svg xmlns:xlink="http://www.w3.org/1999/xlink" viewBox="0 0 128.63 110.61" xmlns="http://www.w3.org/2000/svg" width="195"  height="168" ><path d="m112.2 66.41 10.79 5.46 3.62-34.06-14.41 7.3v.06 21.17z" fill="#FF5C35"></path><path d="m128.63 74.73v-37.94l-2.02 1.02-3.62 34.06z" fill="#B32572"></path><path d="m104.42 45.17h5.26v21.17h-5.26z" fill="#FF5C35"></path><path d="m14.51 106.4 3.91-5.07-.04-.11 6.34-2.51 2.91-3.86-10.14 4.02-6.31-1.3-11.18 4.21 3.33 8.83z" fill="#960048"></path><path d="m31.1 89.92h-2.53l-.41 4.23 2.9-3.85z" fill="#960048"></path><path d="m30.46 96.43.6-6.13-2.9 3.85-.05.51-.48.19-2.91 3.86z" fill="#B32572"></path><path d="m13.66 60.56-2.42-1.68 1.38 2.78z" fill="#960048"></path><path d="m16.22 57.85h4v-6.7h-4.46s-4.57-3-4.82-3h-5l5.33 10.77 2.42 1.68z" fill="#602651"></path><path d="m74.91 16.06a6.92 6.92 0 0 1 -2.63-3.79.43.43 0 0 0 0 0v-.05a6.93 6.93 0 0 1 6.38-8.7v-3.47a25.19 25.19 0 0 0 -6.66.81 24.92 24.92 0 0 0 -10.48 5.74l6.4 7 .19.11a7 7 0 0 1 2.7 3l5.78 6.31a2.84 2.84 0 0 1 1.17-.64 2.76 2.76 0 0 1 .75-.1v-4.94a6.92 6.92 0 0 1 -3.63-1.31" fill="#960048"></path><path d="m98.82 25.27a6.94 6.94 0 0 1 -12-1.4l-5.51.84a2.77 2.77 0 0 1 -.23 1.59l20.29 9.29a25.07 25.07 0 0 0 2-14.22l-3.22.49a6.82 6.82 0 0 1 -1.29 3.41" fill="#009877"></path><path d="m81.05 26.3a2.82 2.82 0 0 1 -1.28 1.34l2.23 4.36a6.95 6.95 0 1 1 6.16 12.17l1.69 3.33a25.12 25.12 0 0 0 11.49-11.95z" fill="#00C4B3"></path><path d="m96 7.13-15.56 16a2.74 2.74 0 0 1 .75 1.29c0 .1.05.21.07.31l5.51-.84a7.72 7.72 0 0 1 -.27-.89.09.09 0 0 1 0-.05 6.94 6.94 0 1 1 13.64-1.06l3.22-.49a22.24 22.24 0 0 0 -.57-2.74 25 25 0 0 0 -6.79-11.53" fill="#006580"></path><path d="m78.66 0v3.47a7 7 0 1 1 -.1 13.9v4.94a2.88 2.88 0 0 1 1.95.8l15.49-15.98a25.13 25.13 0 0 0 -17.34-7.13" fill="#602651"></path><path d="m82.17 43.17a6.95 6.95 0 0 1 -.17-11.17l-2.23-4.4a2.83 2.83 0 0 1 -.55.21 2.75 2.75 0 0 1 -2-.2l-2.53 5.09a6.92 6.92 0 0 1 .48 7.41 5.87 5.87 0 0 1 -.47.75 7.5 7.5 0 0 1 -.56.68 6.94 6.94 0 0 1 -4.92 2.19l-1.92 3.86a25.1 25.1 0 0 0 22.53-.09l-1.69-3.33a6.89 6.89 0 0 1 -6-1" fill="#FFA400"></path><path d="m62.49 26.28a6.39 6.39 0 0 1 -.83-.31 6.54 6.54 0 0 1 -.79-.41 7.09 7.09 0 0 1 -1.11-.85l-6.39-.14a25.13 25.13 0 0 0 13.94 23.06l1.92-3.86a6.94 6.94 0 0 1 -6.23-10.27 5.87 5.87 0 0 1 .47-.75 7.74 7.74 0 0 1 .57-.69 6.94 6.94 0 0 1 9.13-.86 6.82 6.82 0 0 1 1.54 1.54l2.53-5.09a2.82 2.82 0 0 1 -1.47-1.79 2.7 2.7 0 0 1 -.09-.79l-6.68-.15a6.92 6.92 0 0 1 -6.5 1.36" fill="#FF5C35"></path><path d="m58.15 16.79a6.95 6.95 0 0 1 9.18-3.5 6.54 6.54 0 0 1 .59.3l-6.4-7a25.17 25.17 0 0 0 -8.15 18l6.39.14a7 7 0 0 1 -1.61-7.92" fill="#B32572"></path><path d="m70.81 16.74a6.92 6.92 0 0 1 0 5.72 6.78 6.78 0 0 1 -1.81 2.46l6.69.15a2.8 2.8 0 0 1 .91-2z" fill="#B32572"></path><path d="m22.68 66.87v20.54h10.57l6.5-8.62z" fill="#960048"></path><path d="m39.75 78.79 13.49-38.79h-2a20.49 20.49 0 0 1 -10.39 10.92z" fill="#009877"></path><path d="m39.75 78.79 48.86-26.79-.77-.82a27.59 27.59 0 0 1 -32.62-11.18h-2z" fill="#00C4B3"></path><path d="m33.72 52.69 6 26.1 1.1-27.87-.79.34a20.2 20.2 0 0 1 -6.34 1.43" fill="#006580"></path><path d="m39.75 78.79-6-26.1c-.43 0-.85.06-1.28.06-.65 0-1.31 0-2-.09a20.78 20.78 0 0 1 -5.29-1.23 19.85 19.85 0 0 1 -2.51-1.18v16.61z" fill="#602651"></path><path d="m88.61 51.95-48.86 26.84 4.4 8.62h57.76v-21.25z" fill="#FFA400"></path><path d="m39.75 78.79-.52 8.62h4.92z" fill="#FF5C35"></path><path d="m39.75 78.79-6.5 8.62h5.98z" fill="#B32572"></path><path d="m88.61 52 13.3 14.21v-26.21h-.15a27.09 27.09 0 0 1 -1.91 2.63l-.52.62-.11.12-1.53 1.63a27.57 27.57 0 0 1 -9.85 6.12z" fill="#FF5C35"></path><path d="m30.46 37.56a4.81 4.81 0 0 1 2.09 1.77 4.87 4.87 0 0 1 .81 3.17.08.08 0 0 1 0 0 4.93 4.93 0 0 1 -6.36 4.28l-.87 2.29a17.45 17.45 0 0 0 4.64 1.08 17.71 17.71 0 0 0 8.39-1.21l-2.57-6.24-.1-.12a4.86 4.86 0 0 1 -1-2.69l-2.28-5.63a2 2 0 0 1 -.94.14 2.08 2.08 0 0 1 -.52-.12z" fill="#960048"></path><path d="m18.93 27.28a4.93 4.93 0 0 1 6.83 1.38 4.78 4.78 0 0 1 .82 2.53l3.88.81a2 2 0 0 1 .54-1l-11.18-11.2a17.66 17.66 0 0 0 -4.85 9l2.26.47a5 5 0 0 1 1.7-1.95" fill="#009877"></path><path d="m32.19 30.43-.39-3.43a4.93 4.93 0 0 1 -4.19-8.81 4.8 4.8 0 0 1 3.1-.81l-.3-2.63a17.79 17.79 0 0 0 -10.59 5.1l11.18 11.15a2 2 0 0 1 1.19-.57" fill="#00C4B3"></path><path d="m16.3 40 14.31-6.78a1.92 1.92 0 0 1 -.18-1 .83.83 0 0 1 0-.22l-3.87-.81v.64.07a4.92 4.92 0 1 1 -9.33-2.67l-2.23-.47c-.13.64-.23 1.29-.3 2a17.83 17.83 0 0 0 1.6 9.24" fill="#006580"></path><path d="m16.3 40a17.87 17.87 0 0 0 9.78 9l.92-2.22a5 5 0 0 1 -2-1.19 4.94 4.94 0 0 1 5.47-8l1.25-3.28a2 2 0 0 1 -1.1-1z" fill="#602651"></path><path d="m34.44 19.51a4.94 4.94 0 0 1 -2.64 7.49l.39 3.48a2 2 0 0 1 .42 0 2 2 0 0 1 1.26.62l2.94-2.75a4.94 4.94 0 0 1 1.52-5.05 5 5 0 0 1 .5-.38 5 5 0 0 1 4.36-.55l2.23-2.09a17.75 17.75 0 0 0 -11.31-5.55 17.47 17.47 0 0 0 -3.69 0l.29 2.63a4.91 4.91 0 0 1 3.73 2.18" fill="#FFA400"></path><path d="m43.34 35.61a5.82 5.82 0 0 1 .48.41 6.14 6.14 0 0 1 .42.47 4.88 4.88 0 0 1 .52.84l4.24 1.67a17.57 17.57 0 0 0 1.18-4.9 17.81 17.81 0 0 0 -4.74-13.88l-2.23 2.09a5 5 0 0 1 2.47 1.93 4.93 4.93 0 0 1 -.87 6.45l-.5.38a6 6 0 0 1 -.55.31 4.91 4.91 0 0 1 -6.28-1.69 4.81 4.81 0 0 1 -.65-1.4l-2.96 2.71a2 2 0 0 1 .4 2.11l4.41 1.75a4.93 4.93 0 0 1 4.66.71" fill="#FF5C35"></path><g fill="#B32572"><path d="m43.87 43a4.92 4.92 0 0 1 -6.49.47 6 6 0 0 1 -.47-.41 3.49 3.49 0 0 1 -.32-.35l2.52 6.23a17.86 17.86 0 0 0 9.89-9.94l-4.21-1.67a4.94 4.94 0 0 1 -.9 5.66" fill="#B32572"></path><path d="m35.45 39.89a4.89 4.89 0 0 1 1.4-3.81 5 5 0 0 1 1.83-1.18l-4.41-1.75a2 2 0 0 1 -1.1 1.11z" fill="#B32572"></path></g></svg>