<svg xmlns:xlink="http://www.w3.org/1999/xlink" viewBox="0 0 94.62 118.56" xmlns="http://www.w3.org/2000/svg" width="195"  height="245" ><path d="m16.66 35.74-3.14 1.15v10.63l-1.45 1.7v4.94l-.23.26-.69.79v-17.45l-3.21 1.17v20l-.91 1v-4.78l-4.57 5.37s2.12.33 5.89.77c2.63.31 6.05.67 10.15 1 1.42.12 2.93.23 4.51.34l11.05-12.92a128.51 128.51 0 0 1 -14.89-1.33v-11.3l-2.3-1.42z" fill="#960048"></path><path d="m20.38 64c-4-.3-7.43-.63-10-.92l7.35 5.8 3.57-4.18z" fill="#960048"></path><path d="m.3 35.17-.3.11v3.89h4.05l.03-.01.12-.05 2.83-1.03.91-.34 3.21-1.18.91-.34 1.46-.53 2.12-.78-5.33-3.3z" fill="#960048"></path><path d="m49.76 10.05a1.63 1.63 0 0 0 -1.31-.51 1.6 1.6 0 0 0 -1.39.73 3.53 3.53 0 0 0 -.51 2.05 3.18 3.18 0 0 0 .53 2 1.71 1.71 0 0 0 1.37.66 1.87 1.87 0 0 0 .34 0l1.59-4h-.21a2.3 2.3 0 0 0 -.41-.86" fill="#009877"></path><path d="m37.72 9a2.5 2.5 0 0 1 .39.67 2.16 2.16 0 0 1 .15.83 2.36 2.36 0 0 1 -.26 1.14 1.6 1.6 0 0 1 -.41.49v.58a1.23 1.23 0 0 1 .28.33 2.49 2.49 0 0 1 .13 1.23v.54a4 4 0 0 0 0 .73.66.66 0 0 0 .31.45v.2h-1l-.32 7.18h8.42l2.75-7a3.31 3.31 0 0 1 -2.41-1.07 4.45 4.45 0 0 1 -1-3 4.36 4.36 0 0 1 1.25-3.2 3.23 3.23 0 0 1 2.43-1 3.35 3.35 0 0 1 2.63 1.1l3.62-9.2h-16.58l-.4 9m1.18-.75h5.81v1.4h-4.17v1.68h3.84v1.37h-3.84v2h4.38v1.42h-6z" fill="#009877"></path><path d="m51.28 9.44a3 3 0 0 1 .54 1.47h-1.44l-1.59 4a1.44 1.44 0 0 0 1-.54 2.42 2.42 0 0 0 .41-.91h1.6a3.56 3.56 0 0 1 -1.08 2.1 3.16 3.16 0 0 1 -2.24.81h-.25l-2.75 7h38.6v-23.37h-29.4l-3.62 9.2a2.61 2.61 0 0 1 .22.24m14-1.16h3.79a3.51 3.51 0 0 1 1.24.2 2 2 0 0 1 .74.55 2.53 2.53 0 0 1 .4.67 2.16 2.16 0 0 1 .15.83 2.36 2.36 0 0 1 -.29 1.11 1.6 1.6 0 0 1 -.93.77 1.5 1.5 0 0 1 .77.63 2.61 2.61 0 0 1 .23 1.23v.54a4 4 0 0 0 0 .73.66.66 0 0 0 .31.45v.2h-1.78a4 4 0 0 1 -.1-.42 3.14 3.14 0 0 1 -.07-.68v-.74a1.49 1.49 0 0 0 -.27-1 1.32 1.32 0 0 0 -.94-.25h-1.62v3.1h-1.62zm-4.09-.28a3.43 3.43 0 0 1 2.59 1 4.18 4.18 0 0 1 1.22 3.22 4.3 4.3 0 0 1 -1.2 3.27 4.12 4.12 0 0 1 -5.19 0 4.3 4.3 0 0 1 -1.2-3.27 4.18 4.18 0 0 1 1.18-3.22 3.46 3.46 0 0 1 2.6-1m-9.7.25h6.41v1.4h-2.37v6.51h-1.66v-6.48h-2.38z" fill="#00C4B3"></path><path d="m61.19 15a1.89 1.89 0 0 0 1.56-.73 3.26 3.26 0 0 0 .57-2.06 3.28 3.28 0 0 0 -.57-2.06 2.06 2.06 0 0 0 -3.13 0 3.2 3.2 0 0 0 -.62 2.07 3.2 3.2 0 0 0 .59 2.06 1.89 1.89 0 0 0 1.57.73" fill="#00C4B3"></path><path d="m69.48 11.65a.9.9 0 0 0 .47-.89 1 1 0 0 0 -.46-1 1.66 1.66 0 0 0 -.76-.14h-1.83v2.13h1.79a2 2 0 0 0 .79-.13" fill="#00C4B3"></path><path d="m81.11 24.65h-5.66v3.66l5.66-2.75z" fill="#00C4B3"></path><path d="m36.15 9.79a1.7 1.7 0 0 0 -.77-.14h-1.82v2.13h1.78a2 2 0 0 0 .79-.13.9.9 0 0 0 .47-.89 1 1 0 0 0 -.45-1" fill="#006580"></path><path d="m26.3 8.28a3.81 3.81 0 0 1 1.22.17 2.6 2.6 0 0 1 1.35 1 3.68 3.68 0 0 1 .57 1.28 6.13 6.13 0 0 1 .15 1.27 5.25 5.25 0 0 1 -.59 2.71 2.8 2.8 0 0 1 -1.23 1.16l2 7.5h7.38l.32-7.18h-.82c-.05-.17-.08-.32-.11-.42a5.23 5.23 0 0 1 -.07-.68v-.74a1.44 1.44 0 0 0 -.26-1 1.31 1.31 0 0 0 -.94-.25h-1.71v3.1h-1.62v-7.92h3.78a3.53 3.53 0 0 1 1.25.2 1.86 1.86 0 0 1 .73.52l.4-9h-14.53l2.16 8.28zm3.4 0h1.65v7.91h-1.65z" fill="#006580"></path><path d="m37.53 12.71v-.58a2 2 0 0 1 -.52.28 1.78 1.78 0 0 1 .49.3" fill="#006580"></path><path d="m26.09 9.66 1.2 4.59a2 2 0 0 0 .36-.59 4 4 0 0 0 .25-1.51 3.62 3.62 0 0 0 -.38-1.85 1.53 1.53 0 0 0 -1.43-.64" fill="#006580"></path><path d="m26 9.65h-1.51v5.17h1.51a1.61 1.61 0 0 0 1.28-.57l-1.19-4.59h-.09" fill="#602651"></path><path d="m19.17 23.37h10.51l-2-7.5a3.06 3.06 0 0 1 -1.42.32h-3.38v-7.91h2.85l-2.16-8.28h-13v23.37h8.63z" fill="#602651"></path><path d="m15.64 34.91.17-.07.53-.19.92-.34v.57.64l-.39.14 2.3 1.42v-12.43h-5.65v4.55l2.52-.89 1.22-.43v1.26l-3.74 1.33v.01l-3.21 1.13z" fill="#602651"></path><path d="m75.35 100.62h4.43l-21.48-17 26-20.52c-2.62.29-6 .62-10 .92l-19.76 15.56 4.85 8.42z" fill="#FFA400"></path><path d="m80.58 118.56h8.87l-22.79-18 7.44 12.88z" fill="#FFA400"></path><path d="m64.74 64.6-4.67.19-9.65 7.65 1.39 2.4z" fill="#FFA400"></path><path d="m47.27 63.5h2.52c4.23 0 8.24-.14 12-.3 1.62-.06 3.19-.13 4.7-.21 3.49-.19 6.71-.42 9.61-.66 4.09-.34 7.52-.7 10.14-1 3.77-.44 5.89-.77 5.89-.77l-4.53-5.41v4.77l-.92-1v-20l-3.21-1.17v17.46l-.69-.79-.22-.26v-4.94l-1.45-1.7v-10.63l-3.11-1.15-.61-.22v-1.21l.92.34 2.83 1 1.45.53.91.34 3.21 1.18.92.34 3 1.09h4v-3.85l-13.51-4.8-3.75-1.32v-1.28l1.23.43 2.52.9v-3.65l-5.66 2.75v20.07c-10.05 1.71-27.36 1.62-28.15 1.62-.37 0-4.6 0-10-.16l7.88 13.65h2" fill="#FFA400"></path><path d="m45.24 63.49-7.88-13.65-1.53-.06-.93 13.49c3.28.12 6.74.19 10.34.22" fill="#FF5C35"></path><path d="m47.31 92.29 26.79 21.15-7.44-12.88-14.91-11.77 4.34-3.43 3.3 2.62-4.85-8.4-.66.52-2.22 1.75-4.35 3.43-4.43 3.51-10.28 8.11-.51 7.41z" fill="#FF5C35"></path><path d="m46.59 74.33-11.8-9.35-.23 3.32 9.81 7.78z" fill="#FF5C35"></path><path d="m36.32 83.61-2.97 2.35-.25 3.71 5.43-4.31 3.46 2.73 4.44-3.5-3.47-2.74 4.35-3.44 3.47 2.75 2.22-1.75-3.47-2.76 2.28-1.81-1.4-2.4-3.1 2.46-2.21 1.75-4.35 3.45-6.64-5.24-.45 6.65z" fill="#FF5C35"></path><g fill="#B32572"><path d="m14.84 100.63h4.43l13.83-10.96.25-3.71z" fill="#B32572"></path><path d="m34.11 74.86-12.86-10.16-3.57 4.19 15.97 12.61z" fill="#B32572"></path><path d="m32.09 104.31.51-7.41-27.43 21.66h8.87z" fill="#B32572"></path><path d="m28.11 63c1.51.08 3.08.15 4.7.21l2.08.08.93-13.49-1.77-.07-11.05 12.91c1.63.12 3.33.22 5.1.32" fill="#B32572"></path><path d="m34.55 64.79-4.67-.19 4.68 3.7.23-3.3z" fill="#B32572"></path></g></svg>